<svg xmlns="http://www.w3.org/2000/svg" width="256" height="1024"><rect x="0" y="0" width="64" height="64" fill="rgb(0, 0, 0)"/><text x="32" y="32" fill="#ffffff" font-size="16" text-anchor="middle" dominant-baseline="middle">0</text><rect x="64" y="0" width="64" height="64" fill="rgb(0, 0, 85)"/><text x="96" y="32" fill="#ffffff" font-size="16" text-anchor="middle" dominant-baseline="middle">1</text><rect x="128" y="0" width="64" height="64" fill="rgb(0, 0, 170)"/><text x="160" y="32" fill="#ffffff" font-size="16" text-anchor="middle" dominant-baseline="middle">2</text><rect x="192" y="0" width="64" height="64" fill="rgb(0, 0, 255)"/><text x="224" y="32" fill="#ffffff" font-size="16" text-anchor="middle" dominant-baseline="middle">3</text><rect x="0" y="64" width="64" height="64" fill="rgb(0, 85, 0)"/><text x="32" y="96" fill="#ffffff" font-size="16" text-anchor="middle" dominant-baseline="middle">4</text><rect x="64" y="64" width="64" height="64" fill="rgb(0, 85, 85)"/><text x="96" y="96" fill="#ffffff" font-size="16" text-anchor="middle" dominant-baseline="middle">5</text><rect x="128" y="64" width="64" height="64" fill="rgb(0, 85, 170)"/><text x="160" y="96" fill="#ffffff" font-size="16" text-anchor="middle" dominant-baseline="middle">6</text><rect x="192" y="64" width="64" height="64" fill="rgb(0, 85, 255)"/><text x="224" y="96" fill="#ffffff" font-size="16" text-anchor="middle" dominant-baseline="middle">7</text><rect x="0" y="128" width="64" height="64" fill="rgb(0, 170, 0)"/><text x="32" y="160" fill="#ffffff" font-size="16" text-anchor="middle" dominant-baseline="middle">8</text><rect x="64" y="128" width="64" height="64" fill="rgb(0, 170, 85)"/><text x="96" y="160" fill="#ffffff" font-size="16" text-anchor="middle" dominant-baseline="middle">9</text><rect x="128" y="128" width="64" height="64" fill="rgb(0, 170, 170)"/><text x="160" y="160" fill="#ffffff" font-size="16" text-anchor="middle" dominant-baseline="middle">10</text><rect x="192" y="128" width="64" height="64" fill="rgb(0, 170, 255)"/><text x="224" y="160" fill="#000000" font-size="16" text-anchor="middle" dominant-baseline="middle">11</text><rect x="0" y="192" width="64" height="64" fill="rgb(0, 255, 0)"/><text x="32" y="224" fill="#000000" font-size="16" text-anchor="middle" dominant-baseline="middle">12</text><rect x="64" y="192" width="64" height="64" fill="rgb(0, 255, 85)"/><text x="96" y="224" fill="#000000" font-size="16" text-anchor="middle" dominant-baseline="middle">13</text><rect x="128" y="192" width="64" height="64" fill="rgb(0, 255, 170)"/><text x="160" y="224" fill="#000000" font-size="16" text-anchor="middle" dominant-baseline="middle">14</text><rect x="192" y="192" width="64" height="64" fill="rgb(0, 255, 255)"/><text x="224" y="224" fill="#000000" font-size="16" text-anchor="middle" dominant-baseline="middle">15</text><rect x="0" y="256" width="64" height="64" fill="rgb(85, 0, 0)"/><text x="32" y="288" fill="#ffffff" font-size="16" text-anchor="middle" dominant-baseline="middle">16</text><rect x="64" y="256" width="64" height="64" fill="rgb(85, 0, 85)"/><text x="96" y="288" fill="#ffffff" font-size="16" text-anchor="middle" dominant-baseline="middle">17</text><rect x="128" y="256" width="64" height="64" fill="rgb(85, 0, 170)"/><text x="160" y="288" fill="#ffffff" font-size="16" text-anchor="middle" dominant-baseline="middle">18</text><rect x="192" y="256" width="64" height="64" fill="rgb(85, 0, 255)"/><text x="224" y="288" fill="#ffffff" font-size="16" text-anchor="middle" dominant-baseline="middle">19</text><rect x="0" y="320" width="64" height="64" fill="rgb(85, 85, 0)"/><text x="32" y="352" fill="#ffffff" font-size="16" text-anchor="middle" dominant-baseline="middle">20</text><rect x="64" y="320" width="64" height="64" fill="rgb(85, 85, 85)"/><text x="96" y="352" fill="#ffffff" font-size="16" text-anchor="middle" dominant-baseline="middle">21</text><rect x="128" y="320" width="64" height="64" fill="rgb(85, 85, 170)"/><text x="160" y="352" fill="#ffffff" font-size="16" text-anchor="middle" dominant-baseline="middle">22</text><rect x="192" y="320" width="64" height="64" fill="rgb(85, 85, 255)"/><text x="224" y="352" fill="#ffffff" font-size="16" text-anchor="middle" dominant-baseline="middle">23</text><rect x="0" y="384" width="64" height="64" fill="rgb(85, 170, 0)"/><text x="32" y="416" fill="#ffffff" font-size="16" text-anchor="middle" dominant-baseline="middle">24</text><rect x="64" y="384" width="64" height="64" fill="rgb(85, 170, 85)"/><text x="96" y="416" fill="#000000" font-size="16" text-anchor="middle" dominant-baseline="middle">25</text><rect x="128" y="384" width="64" height="64" fill="rgb(85, 170, 170)"/><text x="160" y="416" fill="#000000" font-size="16" text-anchor="middle" dominant-baseline="middle">26</text><rect x="192" y="384" width="64" height="64" fill="rgb(85, 170, 255)"/><text x="224" y="416" fill="#000000" font-size="16" text-anchor="middle" dominant-baseline="middle">27</text><rect x="0" y="448" width="64" height="64" fill="rgb(85, 255, 0)"/><text x="32" y="480" fill="#000000" font-size="16" text-anchor="middle" dominant-baseline="middle">28</text><rect x="64" y="448" width="64" height="64" fill="rgb(85, 255, 85)"/><text x="96" y="480" fill="#000000" font-size="16" text-anchor="middle" dominant-baseline="middle">29</text><rect x="128" y="448" width="64" height="64" fill="rgb(85, 255, 170)"/><text x="160" y="480" fill="#000000" font-size="16" text-anchor="middle" dominant-baseline="middle">30</text><rect x="192" y="448" width="64" height="64" fill="rgb(85, 255, 255)"/><text x="224" y="480" fill="#000000" font-size="16" text-anchor="middle" dominant-baseline="middle">31</text><rect x="0" y="512" width="64" height="64" fill="rgb(170, 0, 0)"/><text x="32" y="544" fill="#ffffff" font-size="16" text-anchor="middle" dominant-baseline="middle">32</text><rect x="64" y="512" width="64" height="64" fill="rgb(170, 0, 85)"/><text x="96" y="544" fill="#ffffff" font-size="16" text-anchor="middle" dominant-baseline="middle">33</text><rect x="128" y="512" width="64" height="64" fill="rgb(170, 0, 170)"/><text x="160" y="544" fill="#ffffff" font-size="16" text-anchor="middle" dominant-baseline="middle">34</text><rect x="192" y="512" width="64" height="64" fill="rgb(170, 0, 255)"/><text x="224" y="544" fill="#ffffff" font-size="16" text-anchor="middle" dominant-baseline="middle">35</text><rect x="0" y="576" width="64" height="64" fill="rgb(170, 85, 0)"/><text x="32" y="608" fill="#ffffff" font-size="16" text-anchor="middle" dominant-baseline="middle">36</text><rect x="64" y="576" width="64" height="64" fill="rgb(170, 85, 85)"/><text x="96" y="608" fill="#ffffff" font-size="16" text-anchor="middle" dominant-baseline="middle">37</text><rect x="128" y="576" width="64" height="64" fill="rgb(170, 85, 170)"/><text x="160" y="608" fill="#ffffff" font-size="16" text-anchor="middle" dominant-baseline="middle">38</text><rect x="192" y="576" width="64" height="64" fill="rgb(170, 85, 255)"/><text x="224" y="608" fill="#000000" font-size="16" text-anchor="middle" dominant-baseline="middle">39</text><rect x="0" y="640" width="64" height="64" fill="rgb(170, 170, 0)"/><text x="32" y="672" fill="#000000" font-size="16" text-anchor="middle" dominant-baseline="middle">40</text><rect x="64" y="640" width="64" height="64" fill="rgb(170, 170, 85)"/><text x="96" y="672" fill="#000000" font-size="16" text-anchor="middle" dominant-baseline="middle">41</text><rect x="128" y="640" width="64" height="64" fill="rgb(170, 170, 170)"/><text x="160" y="672" fill="#000000" font-size="16" text-anchor="middle" dominant-baseline="middle">42</text><rect x="192" y="640" width="64" height="64" fill="rgb(170, 170, 255)"/><text x="224" y="672" fill="#000000" font-size="16" text-anchor="middle" dominant-baseline="middle">43</text><rect x="0" y="704" width="64" height="64" fill="rgb(170, 255, 0)"/><text x="32" y="736" fill="#000000" font-size="16" text-anchor="middle" dominant-baseline="middle">44</text><rect x="64" y="704" width="64" height="64" fill="rgb(170, 255, 85)"/><text x="96" y="736" fill="#000000" font-size="16" text-anchor="middle" dominant-baseline="middle">45</text><rect x="128" y="704" width="64" height="64" fill="rgb(170, 255, 170)"/><text x="160" y="736" fill="#000000" font-size="16" text-anchor="middle" dominant-baseline="middle">46</text><rect x="192" y="704" width="64" height="64" fill="rgb(170, 255, 255)"/><text x="224" y="736" fill="#000000" font-size="16" text-anchor="middle" dominant-baseline="middle">47</text><rect x="0" y="768" width="64" height="64" fill="rgb(255, 0, 0)"/><text x="32" y="800" fill="#ffffff" font-size="16" text-anchor="middle" dominant-baseline="middle">48</text><rect x="64" y="768" width="64" height="64" fill="rgb(255, 0, 85)"/><text x="96" y="800" fill="#ffffff" font-size="16" text-anchor="middle" dominant-baseline="middle">49</text><rect x="128" y="768" width="64" height="64" fill="rgb(255, 0, 170)"/><text x="160" y="800" fill="#ffffff" font-size="16" text-anchor="middle" dominant-baseline="middle">50</text><rect x="192" y="768" width="64" height="64" fill="rgb(255, 0, 255)"/><text x="224" y="800" fill="#ffffff" font-size="16" text-anchor="middle" dominant-baseline="middle">51</text><rect x="0" y="832" width="64" height="64" fill="rgb(255, 85, 0)"/><text x="32" y="864" fill="#ffffff" font-size="16" text-anchor="middle" dominant-baseline="middle">52</text><rect x="64" y="832" width="64" height="64" fill="rgb(255, 85, 85)"/><text x="96" y="864" fill="#000000" font-size="16" text-anchor="middle" dominant-baseline="middle">53</text><rect x="128" y="832" width="64" height="64" fill="rgb(255, 85, 170)"/><text x="160" y="864" fill="#000000" font-size="16" text-anchor="middle" dominant-baseline="middle">54</text><rect x="192" y="832" width="64" height="64" fill="rgb(255, 85, 255)"/><text x="224" y="864" fill="#000000" font-size="16" text-anchor="middle" dominant-baseline="middle">55</text><rect x="0" y="896" width="64" height="64" fill="rgb(255, 170, 0)"/><text x="32" y="928" fill="#000000" font-size="16" text-anchor="middle" dominant-baseline="middle">56</text><rect x="64" y="896" width="64" height="64" fill="rgb(255, 170, 85)"/><text x="96" y="928" fill="#000000" font-size="16" text-anchor="middle" dominant-baseline="middle">57</text><rect x="128" y="896" width="64" height="64" fill="rgb(255, 170, 170)"/><text x="160" y="928" fill="#000000" font-size="16" text-anchor="middle" dominant-baseline="middle">58</text><rect x="192" y="896" width="64" height="64" fill="rgb(255, 170, 255)"/><text x="224" y="928" fill="#000000" font-size="16" text-anchor="middle" dominant-baseline="middle">59</text><rect x="0" y="960" width="64" height="64" fill="rgb(255, 255, 0)"/><text x="32" y="992" fill="#000000" font-size="16" text-anchor="middle" dominant-baseline="middle">60</text><rect x="64" y="960" width="64" height="64" fill="rgb(255, 255, 85)"/><text x="96" y="992" fill="#000000" font-size="16" text-anchor="middle" dominant-baseline="middle">61</text><rect x="128" y="960" width="64" height="64" fill="rgb(255, 255, 170)"/><text x="160" y="992" fill="#000000" font-size="16" text-anchor="middle" dominant-baseline="middle">62</text><rect x="192" y="960" width="64" height="64" fill="rgb(255, 255, 255)"/><text x="224" y="992" fill="#000000" font-size="16" text-anchor="middle" dominant-baseline="middle">63</text></svg>