<svg xmlns="http://www.w3.org/2000/svg" width="640" height="160"><rect x="0" y="0" width="40" height="40" fill="rgb(0, 0, 0)"/><text x="20" y="20" fill="#ffffff" font-size="11" text-anchor="middle" dominant-baseline="middle">0</text><rect x="40" y="0" width="40" height="40" fill="rgb(0, 0, 85)"/><text x="60" y="20" fill="#ffffff" font-size="11" text-anchor="middle" dominant-baseline="middle">1</text><rect x="80" y="0" width="40" height="40" fill="rgb(0, 0, 170)"/><text x="100" y="20" fill="#ffffff" font-size="11" text-anchor="middle" dominant-baseline="middle">2</text><rect x="120" y="0" width="40" height="40" fill="rgb(0, 0, 255)"/><text x="140" y="20" fill="#ffffff" font-size="11" text-anchor="middle" dominant-baseline="middle">3</text><rect x="160" y="0" width="40" height="40" fill="rgb(0, 85, 0)"/><text x="180" y="20" fill="#ffffff" font-size="11" text-anchor="middle" dominant-baseline="middle">4</text><rect x="200" y="0" width="40" height="40" fill="rgb(0, 85, 85)"/><text x="220" y="20" fill="#ffffff" font-size="11" text-anchor="middle" dominant-baseline="middle">5</text><rect x="240" y="0" width="40" height="40" fill="rgb(0, 85, 170)"/><text x="260" y="20" fill="#ffffff" font-size="11" text-anchor="middle" dominant-baseline="middle">6</text><rect x="280" y="0" width="40" height="40" fill="rgb(0, 85, 255)"/><text x="300" y="20" fill="#ffffff" font-size="11" text-anchor="middle" dominant-baseline="middle">7</text><rect x="320" y="0" width="40" height="40" fill="rgb(0, 170, 0)"/><text x="340" y="20" fill="#ffffff" font-size="11" text-anchor="middle" dominant-baseline="middle">8</text><rect x="360" y="0" width="40" height="40" fill="rgb(0, 170, 85)"/><text x="380" y="20" fill="#ffffff" font-size="11" text-anchor="middle" dominant-baseline="middle">9</text><rect x="400" y="0" width="40" height="40" fill="rgb(0, 170, 170)"/><text x="420" y="20" fill="#ffffff" font-size="11" text-anchor="middle" dominant-baseline="middle">10</text><rect x="440" y="0" width="40" height="40" fill="rgb(0, 170, 255)"/><text x="460" y="20" fill="#000000" font-size="11" text-anchor="middle" dominant-baseline="middle">11</text><rect x="480" y="0" width="40" height="40" fill="rgb(0, 255, 0)"/><text x="500" y="20" fill="#000000" font-size="11" text-anchor="middle" dominant-baseline="middle">12</text><rect x="520" y="0" width="40" height="40" fill="rgb(0, 255, 85)"/><text x="540" y="20" fill="#000000" font-size="11" text-anchor="middle" dominant-baseline="middle">13</text><rect x="560" y="0" width="40" height="40" fill="rgb(0, 255, 170)"/><text x="580" y="20" fill="#000000" font-size="11" text-anchor="middle" dominant-baseline="middle">14</text><rect x="600" y="0" width="40" height="40" fill="rgb(0, 255, 255)"/><text x="620" y="20" fill="#000000" font-size="11" text-anchor="middle" dominant-baseline="middle">15</text><rect x="0" y="40" width="40" height="40" fill="rgb(85, 0, 0)"/><text x="20" y="60" fill="#ffffff" font-size="11" text-anchor="middle" dominant-baseline="middle">16</text><rect x="40" y="40" width="40" height="40" fill="rgb(85, 0, 85)"/><text x="60" y="60" fill="#ffffff" font-size="11" text-anchor="middle" dominant-baseline="middle">17</text><rect x="80" y="40" width="40" height="40" fill="rgb(85, 0, 170)"/><text x="100" y="60" fill="#ffffff" font-size="11" text-anchor="middle" dominant-baseline="middle">18</text><rect x="120" y="40" width="40" height="40" fill="rgb(85, 0, 255)"/><text x="140" y="60" fill="#ffffff" font-size="11" text-anchor="middle" dominant-baseline="middle">19</text><rect x="160" y="40" width="40" height="40" fill="rgb(85, 85, 0)"/><text x="180" y="60" fill="#ffffff" font-size="11" text-anchor="middle" dominant-baseline="middle">20</text><rect x="200" y="40" width="40" height="40" fill="rgb(85, 85, 85)"/><text x="220" y="60" fill="#ffffff" font-size="11" text-anchor="middle" dominant-baseline="middle">21</text><rect x="240" y="40" width="40" height="40" fill="rgb(85, 85, 170)"/><text x="260" y="60" fill="#ffffff" font-size="11" text-anchor="middle" dominant-baseline="middle">22</text><rect x="280" y="40" width="40" height="40" fill="rgb(85, 85, 255)"/><text x="300" y="60" fill="#ffffff" font-size="11" text-anchor="middle" dominant-baseline="middle">23</text><rect x="320" y="40" width="40" height="40" fill="rgb(85, 170, 0)"/><text x="340" y="60" fill="#ffffff" font-size="11" text-anchor="middle" dominant-baseline="middle">24</text><rect x="360" y="40" width="40" height="40" fill="rgb(85, 170, 85)"/><text x="380" y="60" fill="#000000" font-size="11" text-anchor="middle" dominant-baseline="middle">25</text><rect x="400" y="40" width="40" height="40" fill="rgb(85, 170, 170)"/><text x="420" y="60" fill="#000000" font-size="11" text-anchor="middle" dominant-baseline="middle">26</text><rect x="440" y="40" width="40" height="40" fill="rgb(85, 170, 255)"/><text x="460" y="60" fill="#000000" font-size="11" text-anchor="middle" dominant-baseline="middle">27</text><rect x="480" y="40" width="40" height="40" fill="rgb(85, 255, 0)"/><text x="500" y="60" fill="#000000" font-size="11" text-anchor="middle" dominant-baseline="middle">28</text><rect x="520" y="40" width="40" height="40" fill="rgb(85, 255, 85)"/><text x="540" y="60" fill="#000000" font-size="11" text-anchor="middle" dominant-baseline="middle">29</text><rect x="560" y="40" width="40" height="40" fill="rgb(85, 255, 170)"/><text x="580" y="60" fill="#000000" font-size="11" text-anchor="middle" dominant-baseline="middle">30</text><rect x="600" y="40" width="40" height="40" fill="rgb(85, 255, 255)"/><text x="620" y="60" fill="#000000" font-size="11" text-anchor="middle" dominant-baseline="middle">31</text><rect x="0" y="80" width="40" height="40" fill="rgb(170, 0, 0)"/><text x="20" y="100" fill="#ffffff" font-size="11" text-anchor="middle" dominant-baseline="middle">32</text><rect x="40" y="80" width="40" height="40" fill="rgb(170, 0, 85)"/><text x="60" y="100" fill="#ffffff" font-size="11" text-anchor="middle" dominant-baseline="middle">33</text><rect x="80" y="80" width="40" height="40" fill="rgb(170, 0, 170)"/><text x="100" y="100" fill="#ffffff" font-size="11" text-anchor="middle" dominant-baseline="middle">34</text><rect x="120" y="80" width="40" height="40" fill="rgb(170, 0, 255)"/><text x="140" y="100" fill="#ffffff" font-size="11" text-anchor="middle" dominant-baseline="middle">35</text><rect x="160" y="80" width="40" height="40" fill="rgb(170, 85, 0)"/><text x="180" y="100" fill="#ffffff" font-size="11" text-anchor="middle" dominant-baseline="middle">36</text><rect x="200" y="80" width="40" height="40" fill="rgb(170, 85, 85)"/><text x="220" y="100" fill="#ffffff" font-size="11" text-anchor="middle" dominant-baseline="middle">37</text><rect x="240" y="80" width="40" height="40" fill="rgb(170, 85, 170)"/><text x="260" y="100" fill="#ffffff" font-size="11" text-anchor="middle" dominant-baseline="middle">38</text><rect x="280" y="80" width="40" height="40" fill="rgb(170, 85, 255)"/><text x="300" y="100" fill="#000000" font-size="11" text-anchor="middle" dominant-baseline="middle">39</text><rect x="320" y="80" width="40" height="40" fill="rgb(170, 170, 0)"/><text x="340" y="100" fill="#000000" font-size="11" text-anchor="middle" dominant-baseline="middle">40</text><rect x="360" y="80" width="40" height="40" fill="rgb(170, 170, 85)"/><text x="380" y="100" fill="#000000" font-size="11" text-anchor="middle" dominant-baseline="middle">41</text><rect x="400" y="80" width="40" height="40" fill="rgb(170, 170, 170)"/><text x="420" y="100" fill="#000000" font-size="11" text-anchor="middle" dominant-baseline="middle">42</text><rect x="440" y="80" width="40" height="40" fill="rgb(170, 170, 255)"/><text x="460" y="100" fill="#000000" font-size="11" text-anchor="middle" dominant-baseline="middle">43</text><rect x="480" y="80" width="40" height="40" fill="rgb(170, 255, 0)"/><text x="500" y="100" fill="#000000" font-size="11" text-anchor="middle" dominant-baseline="middle">44</text><rect x="520" y="80" width="40" height="40" fill="rgb(170, 255, 85)"/><text x="540" y="100" fill="#000000" font-size="11" text-anchor="middle" dominant-baseline="middle">45</text><rect x="560" y="80" width="40" height="40" fill="rgb(170, 255, 170)"/><text x="580" y="100" fill="#000000" font-size="11" text-anchor="middle" dominant-baseline="middle">46</text><rect x="600" y="80" width="40" height="40" fill="rgb(170, 255, 255)"/><text x="620" y="100" fill="#000000" font-size="11" text-anchor="middle" dominant-baseline="middle">47</text><rect x="0" y="120" width="40" height="40" fill="rgb(255, 0, 0)"/><text x="20" y="140" fill="#ffffff" font-size="11" text-anchor="middle" dominant-baseline="middle">48</text><rect x="40" y="120" width="40" height="40" fill="rgb(255, 0, 85)"/><text x="60" y="140" fill="#ffffff" font-size="11" text-anchor="middle" dominant-baseline="middle">49</text><rect x="80" y="120" width="40" height="40" fill="rgb(255, 0, 170)"/><text x="100" y="140" fill="#ffffff" font-size="11" text-anchor="middle" dominant-baseline="middle">50</text><rect x="120" y="120" width="40" height="40" fill="rgb(255, 0, 255)"/><text x="140" y="140" fill="#ffffff" font-size="11" text-anchor="middle" dominant-baseline="middle">51</text><rect x="160" y="120" width="40" height="40" fill="rgb(255, 85, 0)"/><text x="180" y="140" fill="#ffffff" font-size="11" text-anchor="middle" dominant-baseline="middle">52</text><rect x="200" y="120" width="40" height="40" fill="rgb(255, 85, 85)"/><text x="220" y="140" fill="#000000" font-size="11" text-anchor="middle" dominant-baseline="middle">53</text><rect x="240" y="120" width="40" height="40" fill="rgb(255, 85, 170)"/><text x="260" y="140" fill="#000000" font-size="11" text-anchor="middle" dominant-baseline="middle">54</text><rect x="280" y="120" width="40" height="40" fill="rgb(255, 85, 255)"/><text x="300" y="140" fill="#000000" font-size="11" text-anchor="middle" dominant-baseline="middle">55</text><rect x="320" y="120" width="40" height="40" fill="rgb(255, 170, 0)"/><text x="340" y="140" fill="#000000" font-size="11" text-anchor="middle" dominant-baseline="middle">56</text><rect x="360" y="120" width="40" height="40" fill="rgb(255, 170, 85)"/><text x="380" y="140" fill="#000000" font-size="11" text-anchor="middle" dominant-baseline="middle">57</text><rect x="400" y="120" width="40" height="40" fill="rgb(255, 170, 170)"/><text x="420" y="140" fill="#000000" font-size="11" text-anchor="middle" dominant-baseline="middle">58</text><rect x="440" y="120" width="40" height="40" fill="rgb(255, 170, 255)"/><text x="460" y="140" fill="#000000" font-size="11" text-anchor="middle" dominant-baseline="middle">59</text><rect x="480" y="120" width="40" height="40" fill="rgb(255, 255, 0)"/><text x="500" y="140" fill="#000000" font-size="11" text-anchor="middle" dominant-baseline="middle">60</text><rect x="520" y="120" width="40" height="40" fill="rgb(255, 255, 85)"/><text x="540" y="140" fill="#000000" font-size="11" text-anchor="middle" dominant-baseline="middle">61</text><rect x="560" y="120" width="40" height="40" fill="rgb(255, 255, 170)"/><text x="580" y="140" fill="#000000" font-size="11" text-anchor="middle" dominant-baseline="middle">62</text><rect x="600" y="120" width="40" height="40" fill="rgb(255, 255, 255)"/><text x="620" y="140" fill="#000000" font-size="11" text-anchor="middle" dominant-baseline="middle">63</text></svg>