<svg xmlns="http://www.w3.org/2000/svg" width="768" height="192"><rect x="0" y="0" width="48" height="48" fill="rgb(0, 0, 0)"/><text x="24" y="24" fill="#ffffff" font-size="12" text-anchor="middle" dominant-baseline="middle">0</text><rect x="48" y="0" width="48" height="48" fill="rgb(0, 0, 85)"/><text x="72" y="24" fill="#ffffff" font-size="12" text-anchor="middle" dominant-baseline="middle">1</text><rect x="96" y="0" width="48" height="48" fill="rgb(0, 0, 170)"/><text x="120" y="24" fill="#ffffff" font-size="12" text-anchor="middle" dominant-baseline="middle">2</text><rect x="144" y="0" width="48" height="48" fill="rgb(0, 0, 255)"/><text x="168" y="24" fill="#ffffff" font-size="12" text-anchor="middle" dominant-baseline="middle">3</text><rect x="192" y="0" width="48" height="48" fill="rgb(0, 85, 0)"/><text x="216" y="24" fill="#ffffff" font-size="12" text-anchor="middle" dominant-baseline="middle">4</text><rect x="240" y="0" width="48" height="48" fill="rgb(0, 85, 85)"/><text x="264" y="24" fill="#ffffff" font-size="12" text-anchor="middle" dominant-baseline="middle">5</text><rect x="288" y="0" width="48" height="48" fill="rgb(0, 85, 170)"/><text x="312" y="24" fill="#ffffff" font-size="12" text-anchor="middle" dominant-baseline="middle">6</text><rect x="336" y="0" width="48" height="48" fill="rgb(0, 85, 255)"/><text x="360" y="24" fill="#ffffff" font-size="12" text-anchor="middle" dominant-baseline="middle">7</text><rect x="384" y="0" width="48" height="48" fill="rgb(0, 170, 0)"/><text x="408" y="24" fill="#ffffff" font-size="12" text-anchor="middle" dominant-baseline="middle">8</text><rect x="432" y="0" width="48" height="48" fill="rgb(0, 170, 85)"/><text x="456" y="24" fill="#ffffff" font-size="12" text-anchor="middle" dominant-baseline="middle">9</text><rect x="480" y="0" width="48" height="48" fill="rgb(0, 170, 170)"/><text x="504" y="24" fill="#ffffff" font-size="12" text-anchor="middle" dominant-baseline="middle">10</text><rect x="528" y="0" width="48" height="48" fill="rgb(0, 170, 255)"/><text x="552" y="24" fill="#000000" font-size="12" text-anchor="middle" dominant-baseline="middle">11</text><rect x="576" y="0" width="48" height="48" fill="rgb(0, 255, 0)"/><text x="600" y="24" fill="#000000" font-size="12" text-anchor="middle" dominant-baseline="middle">12</text><rect x="624" y="0" width="48" height="48" fill="rgb(0, 255, 85)"/><text x="648" y="24" fill="#000000" font-size="12" text-anchor="middle" dominant-baseline="middle">13</text><rect x="672" y="0" width="48" height="48" fill="rgb(0, 255, 170)"/><text x="696" y="24" fill="#000000" font-size="12" text-anchor="middle" dominant-baseline="middle">14</text><rect x="720" y="0" width="48" height="48" fill="rgb(0, 255, 255)"/><text x="744" y="24" fill="#000000" font-size="12" text-anchor="middle" dominant-baseline="middle">15</text><rect x="0" y="48" width="48" height="48" fill="rgb(85, 0, 0)"/><text x="24" y="72" fill="#ffffff" font-size="12" text-anchor="middle" dominant-baseline="middle">16</text><rect x="48" y="48" width="48" height="48" fill="rgb(85, 0, 85)"/><text x="72" y="72" fill="#ffffff" font-size="12" text-anchor="middle" dominant-baseline="middle">17</text><rect x="96" y="48" width="48" height="48" fill="rgb(85, 0, 170)"/><text x="120" y="72" fill="#ffffff" font-size="12" text-anchor="middle" dominant-baseline="middle">18</text><rect x="144" y="48" width="48" height="48" fill="rgb(85, 0, 255)"/><text x="168" y="72" fill="#ffffff" font-size="12" text-anchor="middle" dominant-baseline="middle">19</text><rect x="192" y="48" width="48" height="48" fill="rgb(85, 85, 0)"/><text x="216" y="72" fill="#ffffff" font-size="12" text-anchor="middle" dominant-baseline="middle">20</text><rect x="240" y="48" width="48" height="48" fill="rgb(85, 85, 85)"/><text x="264" y="72" fill="#ffffff" font-size="12" text-anchor="middle" dominant-baseline="middle">21</text><rect x="288" y="48" width="48" height="48" fill="rgb(85, 85, 170)"/><text x="312" y="72" fill="#ffffff" font-size="12" text-anchor="middle" dominant-baseline="middle">22</text><rect x="336" y="48" width="48" height="48" fill="rgb(85, 85, 255)"/><text x="360" y="72" fill="#ffffff" font-size="12" text-anchor="middle" dominant-baseline="middle">23</text><rect x="384" y="48" width="48" height="48" fill="rgb(85, 170, 0)"/><text x="408" y="72" fill="#ffffff" font-size="12" text-anchor="middle" dominant-baseline="middle">24</text><rect x="432" y="48" width="48" height="48" fill="rgb(85, 170, 85)"/><text x="456" y="72" fill="#000000" font-size="12" text-anchor="middle" dominant-baseline="middle">25</text><rect x="480" y="48" width="48" height="48" fill="rgb(85, 170, 170)"/><text x="504" y="72" fill="#000000" font-size="12" text-anchor="middle" dominant-baseline="middle">26</text><rect x="528" y="48" width="48" height="48" fill="rgb(85, 170, 255)"/><text x="552" y="72" fill="#000000" font-size="12" text-anchor="middle" dominant-baseline="middle">27</text><rect x="576" y="48" width="48" height="48" fill="rgb(85, 255, 0)"/><text x="600" y="72" fill="#000000" font-size="12" text-anchor="middle" dominant-baseline="middle">28</text><rect x="624" y="48" width="48" height="48" fill="rgb(85, 255, 85)"/><text x="648" y="72" fill="#000000" font-size="12" text-anchor="middle" dominant-baseline="middle">29</text><rect x="672" y="48" width="48" height="48" fill="rgb(85, 255, 170)"/><text x="696" y="72" fill="#000000" font-size="12" text-anchor="middle" dominant-baseline="middle">30</text><rect x="720" y="48" width="48" height="48" fill="rgb(85, 255, 255)"/><text x="744" y="72" fill="#000000" font-size="12" text-anchor="middle" dominant-baseline="middle">31</text><rect x="0" y="96" width="48" height="48" fill="rgb(170, 0, 0)"/><text x="24" y="120" fill="#ffffff" font-size="12" text-anchor="middle" dominant-baseline="middle">32</text><rect x="48" y="96" width="48" height="48" fill="rgb(170, 0, 85)"/><text x="72" y="120" fill="#ffffff" font-size="12" text-anchor="middle" dominant-baseline="middle">33</text><rect x="96" y="96" width="48" height="48" fill="rgb(170, 0, 170)"/><text x="120" y="120" fill="#ffffff" font-size="12" text-anchor="middle" dominant-baseline="middle">34</text><rect x="144" y="96" width="48" height="48" fill="rgb(170, 0, 255)"/><text x="168" y="120" fill="#ffffff" font-size="12" text-anchor="middle" dominant-baseline="middle">35</text><rect x="192" y="96" width="48" height="48" fill="rgb(170, 85, 0)"/><text x="216" y="120" fill="#ffffff" font-size="12" text-anchor="middle" dominant-baseline="middle">36</text><rect x="240" y="96" width="48" height="48" fill="rgb(170, 85, 85)"/><text x="264" y="120" fill="#ffffff" font-size="12" text-anchor="middle" dominant-baseline="middle">37</text><rect x="288" y="96" width="48" height="48" fill="rgb(170, 85, 170)"/><text x="312" y="120" fill="#ffffff" font-size="12" text-anchor="middle" dominant-baseline="middle">38</text><rect x="336" y="96" width="48" height="48" fill="rgb(170, 85, 255)"/><text x="360" y="120" fill="#000000" font-size="12" text-anchor="middle" dominant-baseline="middle">39</text><rect x="384" y="96" width="48" height="48" fill="rgb(170, 170, 0)"/><text x="408" y="120" fill="#000000" font-size="12" text-anchor="middle" dominant-baseline="middle">40</text><rect x="432" y="96" width="48" height="48" fill="rgb(170, 170, 85)"/><text x="456" y="120" fill="#000000" font-size="12" text-anchor="middle" dominant-baseline="middle">41</text><rect x="480" y="96" width="48" height="48" fill="rgb(170, 170, 170)"/><text x="504" y="120" fill="#000000" font-size="12" text-anchor="middle" dominant-baseline="middle">42</text><rect x="528" y="96" width="48" height="48" fill="rgb(170, 170, 255)"/><text x="552" y="120" fill="#000000" font-size="12" text-anchor="middle" dominant-baseline="middle">43</text><rect x="576" y="96" width="48" height="48" fill="rgb(170, 255, 0)"/><text x="600" y="120" fill="#000000" font-size="12" text-anchor="middle" dominant-baseline="middle">44</text><rect x="624" y="96" width="48" height="48" fill="rgb(170, 255, 85)"/><text x="648" y="120" fill="#000000" font-size="12" text-anchor="middle" dominant-baseline="middle">45</text><rect x="672" y="96" width="48" height="48" fill="rgb(170, 255, 170)"/><text x="696" y="120" fill="#000000" font-size="12" text-anchor="middle" dominant-baseline="middle">46</text><rect x="720" y="96" width="48" height="48" fill="rgb(170, 255, 255)"/><text x="744" y="120" fill="#000000" font-size="12" text-anchor="middle" dominant-baseline="middle">47</text><rect x="0" y="144" width="48" height="48" fill="rgb(255, 0, 0)"/><text x="24" y="168" fill="#ffffff" font-size="12" text-anchor="middle" dominant-baseline="middle">48</text><rect x="48" y="144" width="48" height="48" fill="rgb(255, 0, 85)"/><text x="72" y="168" fill="#ffffff" font-size="12" text-anchor="middle" dominant-baseline="middle">49</text><rect x="96" y="144" width="48" height="48" fill="rgb(255, 0, 170)"/><text x="120" y="168" fill="#ffffff" font-size="12" text-anchor="middle" dominant-baseline="middle">50</text><rect x="144" y="144" width="48" height="48" fill="rgb(255, 0, 255)"/><text x="168" y="168" fill="#ffffff" font-size="12" text-anchor="middle" dominant-baseline="middle">51</text><rect x="192" y="144" width="48" height="48" fill="rgb(255, 85, 0)"/><text x="216" y="168" fill="#ffffff" font-size="12" text-anchor="middle" dominant-baseline="middle">52</text><rect x="240" y="144" width="48" height="48" fill="rgb(255, 85, 85)"/><text x="264" y="168" fill="#000000" font-size="12" text-anchor="middle" dominant-baseline="middle">53</text><rect x="288" y="144" width="48" height="48" fill="rgb(255, 85, 170)"/><text x="312" y="168" fill="#000000" font-size="12" text-anchor="middle" dominant-baseline="middle">54</text><rect x="336" y="144" width="48" height="48" fill="rgb(255, 85, 255)"/><text x="360" y="168" fill="#000000" font-size="12" text-anchor="middle" dominant-baseline="middle">55</text><rect x="384" y="144" width="48" height="48" fill="rgb(255, 170, 0)"/><text x="408" y="168" fill="#000000" font-size="12" text-anchor="middle" dominant-baseline="middle">56</text><rect x="432" y="144" width="48" height="48" fill="rgb(255, 170, 85)"/><text x="456" y="168" fill="#000000" font-size="12" text-anchor="middle" dominant-baseline="middle">57</text><rect x="480" y="144" width="48" height="48" fill="rgb(255, 170, 170)"/><text x="504" y="168" fill="#000000" font-size="12" text-anchor="middle" dominant-baseline="middle">58</text><rect x="528" y="144" width="48" height="48" fill="rgb(255, 170, 255)"/><text x="552" y="168" fill="#000000" font-size="12" text-anchor="middle" dominant-baseline="middle">59</text><rect x="576" y="144" width="48" height="48" fill="rgb(255, 255, 0)"/><text x="600" y="168" fill="#000000" font-size="12" text-anchor="middle" dominant-baseline="middle">60</text><rect x="624" y="144" width="48" height="48" fill="rgb(255, 255, 85)"/><text x="648" y="168" fill="#000000" font-size="12" text-anchor="middle" dominant-baseline="middle">61</text><rect x="672" y="144" width="48" height="48" fill="rgb(255, 255, 170)"/><text x="696" y="168" fill="#000000" font-size="12" text-anchor="middle" dominant-baseline="middle">62</text><rect x="720" y="144" width="48" height="48" fill="rgb(255, 255, 255)"/><text x="744" y="168" fill="#000000" font-size="12" text-anchor="middle" dominant-baseline="middle">63</text></svg>